<?xml version="1.0" standalone="no"?>
<!DOCTYPE svg PUBLIC "-//W3C//DTD SVG 20010904//EN"
 "http://www.w3.org/TR/2001/REC-SVG-20010904/DTD/svg10.dtd">
<svg version="1.0" xmlns="http://www.w3.org/2000/svg"
 width="219.000000pt" height="40.000000pt" viewBox="0 0 219.000000 40.000000"
 preserveAspectRatio="xMidYMid meet">

<g transform="translate(0.000000,40.000000) scale(0.100000,-0.100000)"
fill="#000000" stroke="none">
<path d="M0 200 l0 -160 50 0 50 0 0 60 0 60 35 0 c29 0 37 5 45 26 6 14 10
27 10 30 0 2 -20 4 -45 4 -45 0 -45 0 -45 35 l0 35 59 0 c57 0 59 1 70 31 6
18 11 34 11 35 0 2 -54 4 -120 4 l-120 0 0 -160z"/>
<path d="M280 200 l0 -160 45 0 45 0 0 160 0 160 -45 0 -45 0 0 -160z"/>
<path d="M450 200 l0 -160 45 0 45 0 0 60 0 60 39 0 c32 0 40 4 45 23 9 36 8
37 -39 37 -45 0 -45 0 -45 35 l0 34 61 3 c58 3 61 4 74 36 l14 32 -119 0 -120
0 0 -160z"/>
<path d="M756 351 c-3 -5 -24 -60 -47 -122 -22 -63 -47 -131 -55 -151 l-13
-38 49 0 c43 0 49 3 52 23 3 19 10 22 61 25 53 3 58 1 67 -22 8 -23 15 -26 56
-26 33 0 45 4 42 13 -3 6 -29 78 -58 160 l-53 147 -48 0 c-26 0 -50 -4 -53 -9z
m77 -158 l16 -53 -40 0 c-45 0 -46 3 -23 80 18 60 22 57 47 -27z"/>
<path d="M1134 195 c0 -88 2 -123 3 -77 2 46 2 118 0 160 -1 42 -3 5 -3 -83z"/>
<path d="M1310 300 c0 -48 1 -50 28 -50 35 0 52 16 52 52 0 29 -23 48 -59 48
-18 0 -21 -6 -21 -50z m60 26 c0 -2 3 -11 6 -19 5 -15 -20 -47 -37 -47 -5 0
-9 16 -9 35 0 28 4 35 20 35 11 0 20 -2 20 -4z"/>
<path d="M1507 337 c-9 -26 5 -87 21 -87 12 0 13 3 4 12 -16 16 -15 45 0 50 9
3 8 9 -4 21 -12 12 -17 13 -21 4z"/>
<path d="M1415 313 c-18 -17 -18 -19 -5 -44 8 -13 20 -19 40 -17 27 2 30 6 30
38 0 30 -3 35 -25 36 -14 1 -32 -5 -40 -13z m51 -14 c10 -17 -23 -46 -37 -32
-7 7 -9 19 -6 27 7 18 33 21 43 5z"/>
<path d="M1561 317 c-28 -28 -4 -67 41 -67 26 0 28 3 28 38 0 34 -3 37 -29 39
-15 1 -33 -3 -40 -10z m47 -29 c-2 -13 -10 -23 -18 -23 -8 0 -16 10 -18 23 -3
17 2 22 18 22 16 0 21 -5 18 -22z"/>
<path d="M1310 100 c0 -51 19 -72 21 -22 l1 27 10 -27 c13 -36 23 -35 39 5
l14 32 6 -35 c6 -31 7 -29 8 18 0 28 -1 52 -4 52 -2 0 -13 -17 -24 -37 l-19
-38 -18 38 c-10 20 -21 37 -26 37 -4 0 -8 -22 -8 -50z"/>
<path d="M1580 100 c0 -27 5 -50 10 -50 6 0 10 8 10 18 1 16 1 16 11 0 15 -26
32 -23 19 3 -9 15 -8 24 1 35 6 8 9 17 5 21 -3 4 -13 -2 -21 -13 -14 -18 -14
-18 -15 9 0 15 -4 27 -10 27 -5 0 -10 -22 -10 -50z"/>
<path d="M1747 137 c-10 -27 8 -82 28 -85 16 -2 17 -1 6 6 -9 7 -12 20 -8 40
7 33 -16 66 -26 39z"/>
<path d="M1890 100 c0 -27 5 -50 10 -50 6 0 10 23 10 50 0 28 -4 50 -10 50 -5
0 -10 -22 -10 -50z"/>
<path d="M1441 117 c-28 -28 -4 -67 41 -67 26 0 28 3 28 38 0 36 -2 39 -29 40
-15 0 -33 -4 -40 -11z m47 -29 c-2 -13 -10 -23 -18 -23 -8 0 -16 10 -18 23 -3
17 2 22 18 22 16 0 21 -5 18 -22z"/>
<path d="M1530 88 c0 -21 5 -38 10 -38 6 0 10 14 10 30 0 17 5 30 10 30 6 0
10 4 10 8 0 4 -9 8 -20 8 -16 0 -20 -7 -20 -38z"/>
<path d="M1674 122 c-17 -11 -22 -35 -12 -55 10 -19 53 -23 64 -6 5 8 -1 10
-19 5 -14 -3 -29 -2 -32 4 -4 6 6 10 24 10 32 0 41 16 19 38 -14 14 -28 15
-44 4z m36 -22 c0 -5 -7 -10 -15 -10 -8 0 -15 5 -15 10 0 6 7 10 15 10 8 0 15
-4 15 -10z"/>
<path d="M1800 67 c0 -36 4 -56 10 -52 6 3 10 13 10 21 0 8 8 14 19 14 26 0
44 25 36 50 -7 22 -7 22 -47 24 -28 2 -28 1 -28 -57z m58 21 c-2 -13 -10 -23
-18 -23 -8 0 -16 10 -18 23 -3 17 2 22 18 22 16 0 21 -5 18 -22z"/>
<path d="M1942 121 c-8 -5 -12 -21 -10 -37 3 -26 7 -29 41 -31 38 -1 38 -1 35
35 -2 29 -7 36 -28 39 -14 1 -31 -1 -38 -6z m43 -21 c4 -6 1 -18 -6 -26 -11
-13 -14 -13 -27 0 -8 8 -11 19 -8 25 9 14 33 14 41 1z"/>
<path d="M2032 118 c-25 -25 -6 -68 29 -68 10 0 21 4 24 10 4 6 -4 9 -17 7
-17 -1 -24 4 -26 22 -3 21 0 23 22 19 28 -6 36 6 10 16 -22 8 -28 8 -42 -6z"/>
<path d="M2116 114 c-19 -18 -19 -20 -6 -45 12 -21 45 -26 56 -8 4 7 0 9 -14
5 -11 -4 -23 -2 -27 4 -4 6 6 10 24 10 32 0 41 16 19 38 -16 16 -33 15 -52 -4z
m44 -14 c0 -5 -6 -10 -14 -10 -8 0 -18 5 -21 10 -3 6 3 10 14 10 12 0 21 -4
21 -10z"/>
</g>
</svg>
